<mxfile host="app.diagrams.net" modified="2023-11-03T10:03:17.095Z" agent="Mozilla/5.0 (Windows NT 10.0; Win64; x64) AppleWebKit/537.36 (KHTML, like Gecko) Chrome/119.0.0.0 Safari/537.36" etag="XhVCRV2O_IvFIcfEpUrP" version="22.0.8" type="device">
  <diagram name="Page-1" id="Ue8f9LlnbdhEEOHbtgs6">
    <mxGraphModel dx="1690" dy="942" grid="0" gridSize="10" guides="1" tooltips="1" connect="1" arrows="1" fold="1" page="0" pageScale="1" pageWidth="850" pageHeight="1100" math="0" shadow="0">
      <root>
        <mxCell id="0" />
        <mxCell id="1" parent="0" />
        <mxCell id="B_ZnOUw9b-olAKbWsRoH-1" value="Employee" style="shape=umlActor;verticalLabelPosition=bottom;verticalAlign=top;html=1;outlineConnect=0;fontSize=16;" parent="1" vertex="1">
          <mxGeometry x="-277" y="137" width="30" height="60" as="geometry" />
        </mxCell>
        <mxCell id="B_ZnOUw9b-olAKbWsRoH-5" value="view_draft_&lt;br&gt;files" style="ellipse;whiteSpace=wrap;html=1;fontSize=16;" parent="1" vertex="1">
          <mxGeometry x="-113" y="-16" width="120" height="58" as="geometry" />
        </mxCell>
        <mxCell id="B_ZnOUw9b-olAKbWsRoH-6" value="forward_file" style="ellipse;whiteSpace=wrap;html=1;fontSize=16;" parent="1" vertex="1">
          <mxGeometry x="-133" y="-95" width="120" height="61" as="geometry" />
        </mxCell>
        <mxCell id="B_ZnOUw9b-olAKbWsRoH-7" value="create_file" style="ellipse;whiteSpace=wrap;html=1;fontSize=16;" parent="1" vertex="1">
          <mxGeometry x="-127" y="273" width="129" height="36" as="geometry" />
        </mxCell>
        <mxCell id="B_ZnOUw9b-olAKbWsRoH-8" value="attach_documents" style="ellipse;whiteSpace=wrap;html=1;fontSize=16;" parent="1" vertex="1">
          <mxGeometry x="-129" y="361" width="166" height="50" as="geometry" />
        </mxCell>
        <mxCell id="B_ZnOUw9b-olAKbWsRoH-9" value="" style="endArrow=none;html=1;rounded=0;fontSize=12;startSize=8;endSize=8;curved=1;" parent="1" source="B_ZnOUw9b-olAKbWsRoH-1" target="B_ZnOUw9b-olAKbWsRoH-5" edge="1">
          <mxGeometry width="50" height="50" relative="1" as="geometry">
            <mxPoint x="-226" y="167" as="sourcePoint" />
            <mxPoint x="-136" y="77" as="targetPoint" />
          </mxGeometry>
        </mxCell>
        <mxCell id="B_ZnOUw9b-olAKbWsRoH-10" value="" style="endArrow=none;html=1;rounded=0;fontSize=12;startSize=8;endSize=8;curved=1;" parent="1" source="B_ZnOUw9b-olAKbWsRoH-1" target="B_ZnOUw9b-olAKbWsRoH-7" edge="1">
          <mxGeometry width="50" height="50" relative="1" as="geometry">
            <mxPoint x="-227" y="190" as="sourcePoint" />
            <mxPoint x="-129" y="265" as="targetPoint" />
          </mxGeometry>
        </mxCell>
        <mxCell id="B_ZnOUw9b-olAKbWsRoH-11" value="" style="endArrow=none;html=1;rounded=0;fontSize=12;startSize=8;endSize=8;curved=1;" parent="1" source="B_ZnOUw9b-olAKbWsRoH-1" target="B_ZnOUw9b-olAKbWsRoH-6" edge="1">
          <mxGeometry width="50" height="50" relative="1" as="geometry">
            <mxPoint x="-237" y="159" as="sourcePoint" />
            <mxPoint x="-139" y="-43" as="targetPoint" />
          </mxGeometry>
        </mxCell>
        <mxCell id="B_ZnOUw9b-olAKbWsRoH-13" value="view_received_files" style="ellipse;whiteSpace=wrap;html=1;fontSize=16;" parent="1" vertex="1">
          <mxGeometry x="94" y="102" width="168" height="46" as="geometry" />
        </mxCell>
        <mxCell id="B_ZnOUw9b-olAKbWsRoH-14" value="view_sent_files" style="ellipse;whiteSpace=wrap;html=1;fontSize=16;" parent="1" vertex="1">
          <mxGeometry x="85" y="42" width="150.5" height="36" as="geometry" />
        </mxCell>
        <mxCell id="B_ZnOUw9b-olAKbWsRoH-19" value="assign/update_designation" style="ellipse;whiteSpace=wrap;html=1;fontSize=16;direction=west;" parent="1" vertex="1">
          <mxGeometry x="438" y="86" width="220" height="50" as="geometry" />
        </mxCell>
        <mxCell id="B_ZnOUw9b-olAKbWsRoH-23" value="create_designation" style="ellipse;whiteSpace=wrap;html=1;fontSize=16;" parent="1" vertex="1">
          <mxGeometry x="436" y="-44" width="177" height="52" as="geometry" />
        </mxCell>
        <mxCell id="B_ZnOUw9b-olAKbWsRoH-25" value="System Administrator" style="shape=umlActor;verticalLabelPosition=bottom;verticalAlign=top;html=1;outlineConnect=0;fontSize=16;" parent="1" vertex="1">
          <mxGeometry x="768" y="8" width="40" height="78" as="geometry" />
        </mxCell>
        <mxCell id="B_ZnOUw9b-olAKbWsRoH-40" value="&amp;lt;&amp;lt;extends&amp;gt;&amp;gt;" style="endArrow=open;endSize=12;dashed=1;html=1;rounded=0;fontSize=12;curved=1;" parent="1" source="B_ZnOUw9b-olAKbWsRoH-8" target="B_ZnOUw9b-olAKbWsRoH-7" edge="1">
          <mxGeometry x="-0.025" y="18" width="160" relative="1" as="geometry">
            <mxPoint x="-67" y="341" as="sourcePoint" />
            <mxPoint x="-65" y="390" as="targetPoint" />
            <mxPoint as="offset" />
          </mxGeometry>
        </mxCell>
        <mxCell id="WzKuI4dKCYhzlwDjwN51-1" value="" style="endArrow=none;html=1;rounded=0;" parent="1" source="B_ZnOUw9b-olAKbWsRoH-23" target="B_ZnOUw9b-olAKbWsRoH-25" edge="1">
          <mxGeometry width="50" height="50" relative="1" as="geometry">
            <mxPoint x="307" y="342" as="sourcePoint" />
            <mxPoint x="357" y="292" as="targetPoint" />
          </mxGeometry>
        </mxCell>
        <mxCell id="WzKuI4dKCYhzlwDjwN51-2" value="" style="endArrow=none;html=1;rounded=0;" parent="1" source="B_ZnOUw9b-olAKbWsRoH-19" target="B_ZnOUw9b-olAKbWsRoH-25" edge="1">
          <mxGeometry width="50" height="50" relative="1" as="geometry">
            <mxPoint x="307" y="342" as="sourcePoint" />
            <mxPoint x="357" y="292" as="targetPoint" />
          </mxGeometry>
        </mxCell>
        <mxCell id="WzKuI4dKCYhzlwDjwN51-3" value="" style="endArrow=none;html=1;rounded=0;" parent="1" source="B_ZnOUw9b-olAKbWsRoH-1" target="WzKuI4dKCYhzlwDjwN51-7" edge="1">
          <mxGeometry width="50" height="50" relative="1" as="geometry">
            <mxPoint x="188" y="168" as="sourcePoint" />
            <mxPoint x="238" y="118" as="targetPoint" />
          </mxGeometry>
        </mxCell>
        <mxCell id="WzKuI4dKCYhzlwDjwN51-4" value="delete_draft&lt;br&gt;" style="ellipse;whiteSpace=wrap;html=1;" parent="1" vertex="1">
          <mxGeometry x="112" y="-23" width="121" height="42" as="geometry" />
        </mxCell>
        <mxCell id="WzKuI4dKCYhzlwDjwN51-5" value="&amp;lt;&amp;lt;extend&amp;gt;&amp;gt;" style="html=1;verticalAlign=bottom;labelBackgroundColor=none;endArrow=open;endFill=0;dashed=1;rounded=0;" parent="1" source="WzKuI4dKCYhzlwDjwN51-4" target="B_ZnOUw9b-olAKbWsRoH-5" edge="1">
          <mxGeometry width="160" relative="1" as="geometry">
            <mxPoint x="133" y="153" as="sourcePoint" />
            <mxPoint x="293" y="153" as="targetPoint" />
          </mxGeometry>
        </mxCell>
        <mxCell id="WzKuI4dKCYhzlwDjwN51-7" value="view_files" style="ellipse;whiteSpace=wrap;html=1;" parent="1" vertex="1">
          <mxGeometry x="-136.5" y="76" width="127" height="40" as="geometry" />
        </mxCell>
        <mxCell id="WzKuI4dKCYhzlwDjwN51-10" value="attach_documents" style="ellipse;whiteSpace=wrap;html=1;fontSize=16;" parent="1" vertex="1">
          <mxGeometry x="107" y="-103" width="166" height="50" as="geometry" />
        </mxCell>
        <mxCell id="WzKuI4dKCYhzlwDjwN51-11" value="&amp;lt;&amp;lt;extend&amp;gt;&amp;gt;" style="html=1;verticalAlign=bottom;labelBackgroundColor=none;endArrow=open;endFill=0;dashed=1;rounded=0;" parent="1" source="WzKuI4dKCYhzlwDjwN51-10" target="B_ZnOUw9b-olAKbWsRoH-6" edge="1">
          <mxGeometry width="160" relative="1" as="geometry">
            <mxPoint x="133" y="52" as="sourcePoint" />
            <mxPoint x="293" y="52" as="targetPoint" />
          </mxGeometry>
        </mxCell>
        <mxCell id="WzKuI4dKCYhzlwDjwN51-12" value="track_file" style="ellipse;whiteSpace=wrap;html=1;" parent="1" vertex="1">
          <mxGeometry x="91.75" y="168" width="137" height="36" as="geometry" />
        </mxCell>
        <mxCell id="WzKuI4dKCYhzlwDjwN51-13" value="&amp;lt;&amp;lt;extend&amp;gt;&amp;gt;" style="html=1;verticalAlign=bottom;labelBackgroundColor=none;endArrow=open;endFill=0;dashed=1;rounded=0;" parent="1" source="B_ZnOUw9b-olAKbWsRoH-14" target="WzKuI4dKCYhzlwDjwN51-7" edge="1">
          <mxGeometry width="160" relative="1" as="geometry">
            <mxPoint x="133" y="52" as="sourcePoint" />
            <mxPoint x="293" y="52" as="targetPoint" />
          </mxGeometry>
        </mxCell>
        <mxCell id="WzKuI4dKCYhzlwDjwN51-15" value="&amp;lt;&amp;lt;extend&amp;gt;&amp;gt;" style="html=1;verticalAlign=bottom;labelBackgroundColor=none;endArrow=open;endFill=0;dashed=1;rounded=0;" parent="1" source="B_ZnOUw9b-olAKbWsRoH-13" target="WzKuI4dKCYhzlwDjwN51-7" edge="1">
          <mxGeometry width="160" relative="1" as="geometry">
            <mxPoint x="133" y="52" as="sourcePoint" />
            <mxPoint x="293" y="52" as="targetPoint" />
          </mxGeometry>
        </mxCell>
        <mxCell id="WzKuI4dKCYhzlwDjwN51-16" value="&amp;lt;&amp;lt;extend&amp;gt;&amp;gt;" style="html=1;verticalAlign=bottom;labelBackgroundColor=none;endArrow=open;endFill=0;dashed=1;rounded=0;" parent="1" source="WzKuI4dKCYhzlwDjwN51-12" target="WzKuI4dKCYhzlwDjwN51-7" edge="1">
          <mxGeometry width="160" relative="1" as="geometry">
            <mxPoint x="133" y="52" as="sourcePoint" />
            <mxPoint x="293" y="52" as="targetPoint" />
          </mxGeometry>
        </mxCell>
      </root>
    </mxGraphModel>
  </diagram>
</mxfile>
